<?xml version="1.0" encoding="UTF-8" standalone="no"?>
<svg
   width="24"
   height="24"
   fill="currentColor"
   class="bi bi-qr-code"
   viewBox="0 0 24 24"
   version="1.1"
   id="svg5"
   sodipodi:docname="qr-code.svg"
   inkscape:version="1.4 (e7c3feb100, 2024-10-09)"
   xmlns:inkscape="http://www.inkscape.org/namespaces/inkscape"
   xmlns:sodipodi="http://sodipodi.sourceforge.net/DTD/sodipodi-0.dtd"
   xmlns="http://www.w3.org/2000/svg"
   xmlns:svg="http://www.w3.org/2000/svg">
  <defs
     id="defs5" />
  <sodipodi:namedview
     id="namedview5"
     pagecolor="#ffffff"
     bordercolor="#000000"
     borderopacity="0.25"
     inkscape:showpageshadow="2"
     inkscape:pageopacity="0.0"
     inkscape:pagecheckerboard="0"
     inkscape:deskcolor="#d1d1d1"
     inkscape:zoom="27.087512"
     inkscape:cx="7.0143024"
     inkscape:cy="15.800639"
     inkscape:window-width="1920"
     inkscape:window-height="1131"
     inkscape:window-x="0"
     inkscape:window-y="0"
     inkscape:window-maximized="1"
     inkscape:current-layer="svg5" />
  <rect
     style="fill:#1ed760;fill-opacity:1;stroke-width:2.2029"
     id="rect5"
     width="24"
     height="24"
     x="0"
     y="0" />
  <g
     id="g5"
     transform="translate(4,4)">
    <path
       d="M 2,2 H 4 V 4 H 2 Z"
       id="path1" />
    <path
       d="M 6,0 V 6 H 0 V 0 Z M 5,1 H 1 V 5 H 5 Z M 4,12 H 2 v 2 h 2 z"
       id="path2" />
    <path
       d="m 6,10 v 6 H 0 v -6 z m -5,1 v 4 H 5 V 11 Z M 12,2 h 2 v 2 h -2 z"
       id="path3" />
    <path
       d="m 10,0 v 6 h 6 V 0 Z m 5,1 V 5 H 11 V 1 Z M 8,1 V 0 H 9 V 2 H 8 V 4 H 7 V 1 Z M 8,6 V 4 H 9 V 6 Z M 6,8 V 7 H 7 V 6 H 8 V 8 H 9 V 7 h 5 V 8 H 10 V 9 H 7 V 8 Z M 6,8 V 9 H 2 V 8 H 1 V 9 H 0 V 7 H 3 V 8 Z M 16,9 H 15 V 7 h 1 z m -1,0 h -1 v 2 h 2 v -1 h -1 z m -4,0 h 2 v 1 h -1 v 1 h -1 z m 2,3 v -1 h -1 v 1 h -1 v 1 H 9 v 1 h 3 v -2 z m 0,0 h 3 v 1 h -2 v 1 H 13 Z M 9,11 v 1 h 1 V 10 H 7 v 1 z"
       id="path4" />
    <path
       d="m 7,12 h 1 v 3 h 4 v 1 H 7 Z m 9,2 v 2 h -3 v -1 h 2 v -1 z"
       id="path5" />
  </g>
</svg>
